<svg xmlns="http://www.w3.org/2000/svg" viewBox="0 0 180 32">
  <g fill="#703B09">
    <path d="M0 4h5v14l9-14h5v20h-5V10l-9 14H0V4z"/>
    <path d="M23 4h16v4.5h-11v3h9v4h-9v3h11V23H23V4z"/>
    <path d="M43 8.5V4h17v4.5h-6V24h-5V8.5h-6z"/>
  </g>
  <g fill="#703B09">
    <path d="M64 15.5c0-5 4-8.5 9-8.5 4.5 0 8 2.5 8.5 6h-5.5c-.5-1.2-1.5-2-3-2-2.3 0-4 1.7-4 4s1.7 4.5 4 4.5c1.5 0 2.5-.7 3-2h5.5c-.5 3.5-4 6-8.5 6-5 0-9-3.5-9-8z"/>
    <path d="M84 7h5.5v10c0 1.5 1 2.5 2.7 2.5s2.7-1 2.7-2.5V7H100v11c0 4-3 7-8 7s-8-3-8-7V7z"/>
    <path d="M104 7h5.5v12.5h7.5V24H104V7z"/>
    <path d="M119 7h5.5v17H119V7z"/>
    <path d="M128 7h14v4h-8.5v2h8v4h-8v2.5h8.5V24H128V7z"/>
  </g>
</svg>
