<svg width="212" height="52" viewBox="0 0 212 52" fill="none" xmlns="http://www.w3.org/2000/svg">
    <g clip-path="url(#clip0_2515_3184)">
        <path d="M43.361 32.4648L34.6748 11.0361H28.1147C35.9477 30.4576 39.8712 40.4307 39.8712 40.9342C39.8712 42.1022 39.4376 43.1792 38.5843 44.1583C37.7311 45.1444 36.6191 45.634 35.2483 45.634C33.8776 45.634 32.5627 45.0325 31.2899 43.8366L28.4994 48.8091C30.6535 50.7394 33.0523 51.7045 35.7169 51.7045C37.6122 51.7045 39.3397 51.159 40.9132 50.061C42.4728 48.963 43.6828 47.4733 44.515 45.578L58.6213 11.0291H52.0612L43.368 32.4578L43.361 32.4648ZM78.1618 10.5955C76.1546 10.5955 74.2803 11.106 72.5598 12.1271C70.8254 13.1412 69.4686 14.5539 68.4825 16.3373V11.0361H62.363V40.116H68.4825V24.3731C68.4825 21.6805 69.2658 19.6244 70.8394 18.2256C72.4059 16.8199 74.2453 16.1135 76.3574 16.1135C80.8054 16.1135 83.0294 18.7991 83.0294 24.1563V40.116H89.1489V22.296C89.1489 18.5054 88.1348 15.61 86.1136 13.6028C84.0924 11.6026 81.4348 10.5955 78.1618 10.5955ZM25.3732 11.2949H17.6312L6.02159 23.4429V0L0 0L0 39.8852H6.02159V31.7725L10.3787 27.3664L18.869 39.8922H26.1775L14.512 22.6387L25.3662 11.2949H25.3732ZM117.501 14.1763C114.732 11.7914 111.368 10.5955 107.416 10.5885C103.458 10.5885 100.024 11.9383 97.1078 14.6309C94.1844 17.3304 92.7367 20.9602 92.7297 25.5411C92.7297 30.1149 94.1564 33.7587 97.0098 36.4792C99.8773 39.1928 103.339 40.5566 107.43 40.5566C111.424 40.5566 114.816 39.5145 117.613 37.4653L113.935 33.7866C112.291 34.7937 110.27 35.3043 107.864 35.3043C105.913 35.3043 104.15 34.8287 102.563 33.8915C100.339 32.8285 98.7932 30.5555 98.7932 27.9189V23.2052C98.7932 20.7993 100.087 18.7012 102.01 17.5402C103.675 16.4073 105.521 15.8338 107.57 15.8338C109.815 15.8338 111.697 16.4912 113.228 17.806C114.76 19.1208 115.529 20.9951 115.529 23.4359H105.367C105.36 25.0165 105.346 26.688 105.346 28.2476H121.656V24.0374C121.656 19.8482 120.264 16.5681 117.501 14.1693M207.196 29.7093C205.447 32.5488 203.293 34.2902 200.72 34.8986C198.069 35.5281 195.635 35.1504 193.397 33.7796C191.152 32.4089 189.733 30.4087 189.11 27.8C188.488 25.1984 188.893 22.8485 190.327 20.7713C191.761 18.6872 193.719 17.3514 196.202 16.7569C198.684 16.1695 201.405 16.645 204.356 18.1907L206.839 13.0503C203.202 10.8053 199.251 10.1898 194.992 11.2039C190.74 12.211 187.453 14.428 185.145 17.848C182.823 21.2679 182.179 25.1354 183.207 29.4645C184.235 33.7866 186.487 36.9548 189.963 38.955C193.432 40.9552 197.139 41.4937 201.076 40.5566C205.182 39.5774 208.497 37.2415 211.035 33.5768C209.497 32.0732 207.972 30.5555 207.196 29.7163M174.738 14.1972C171.968 11.8124 168.612 10.6165 164.66 10.6095C160.702 10.6095 157.268 11.9593 154.351 14.6518C151.428 17.3514 149.98 20.9811 149.98 25.555C149.98 30.1289 151.407 33.7727 154.26 36.4932C157.128 39.2068 160.597 40.5705 164.681 40.5705C168.674 40.5705 172.066 39.5285 174.864 37.4793L171.192 33.8006C169.542 34.8077 167.527 35.3183 165.122 35.3183C163.17 35.3183 161.408 34.8427 159.82 33.9125C157.589 32.8495 156.051 30.5765 156.051 27.9399V23.2261C156.051 20.8203 157.338 18.7222 159.261 17.5612C160.932 16.4212 162.779 15.8478 164.821 15.8478C167.066 15.8478 168.947 16.5052 170.479 17.82C172.01 19.1348 172.78 21.0161 172.773 23.4499H162.618C162.604 25.0305 162.597 26.702 162.59 28.2616H178.899V24.0514C178.899 19.8622 177.508 16.5751 174.745 14.1833M141.532 35.5351C140.294 35.5351 139.322 35.1434 138.636 34.3671C137.951 33.5978 137.601 32.5488 137.601 31.2409V3.99341H131.811V12.3089H123.852V18.0018H131.804V31.0871C131.804 33.9825 132.678 36.2834 134.419 37.9899C136.154 39.6963 138.259 40.5566 140.721 40.5566C143.182 40.5566 145.434 39.6404 147.476 37.815L145.092 33.7307C143.952 34.9336 142.77 35.5421 141.525 35.5421" fill="#F5F8FF"/>
        <path d="M204.922 25.4851C204.985 28.0868 203.313 30.4647 200.747 31.4158C197.39 32.6467 193.606 31.0661 192.312 27.898C191.781 26.5832 191.732 25.1844 192.172 23.8486L190.585 23.373C190.039 25.0376 190.102 26.8489 190.76 28.4785C192.012 31.5487 195.11 33.43 198.39 33.43C199.369 33.43 200.369 33.2622 201.341 32.9055C204.558 31.7166 206.663 28.7232 206.58 25.4502L204.915 25.4921L204.922 25.4851Z" fill="#F5F8FF"/>
        <path d="M198.11 30.5343C198.711 30.5343 199.32 30.4294 199.921 30.2126L199.327 28.723C197.599 29.3594 195.648 28.5481 194.991 26.9186C194.718 26.2472 194.697 25.5268 194.921 24.8345L193.333 24.3589C192.997 25.38 193.039 26.492 193.438 27.4921C194.2 29.3734 196.11 30.5273 198.117 30.5273" fill="#F5F8FF"/>
        <path d="M142.468 17.9389C139.027 17.9319 138.559 17.9389 138.559 17.9389C138.559 17.9389 138.496 12.1061 144.112 12.0991C147.448 12.0991 148.14 12.0991 148.14 12.0991C148.14 12.0991 148.021 17.9529 142.468 17.9389Z" fill="#F5F8FF"/>
    </g>
    <defs>
        <clipPath id="clip0_2515_3184">
            <rect width="211.035" height="51.7045" fill="white"/>
        </clipPath>
    </defs>
</svg>
