<svg xmlns="http://www.w3.org/2000/svg" viewBox="0 0 596.5 126.5" role="img" aria-label="Phocas Software">
  <title>Phocas Software</title>
  <path d="M73.1 43.2c0-13.5-8.1-16.1-24.7-16.1-4.1 0-8.4.2-12.3.2v33.6c3.9.1 8.2.1 12.5.1 16.4 0 24.5-3.2 24.5-16.4zM0 124.3v-20.7l7.5-.6V27.2L0 26.4V5.9c15-1.1 30.9-1.4 46.4-1.4 30.9 0 55.6 5.7 55.6 38.7v1.4c0 33.5-24.7 39.5-52.7 39.5-4.3 0-8.1-.2-13.1-.2v19l7.5.8v20.6zm170.8 0V66.9c0-11.5-3-14.7-11.8-14.7-7 0-14.2 2.2-18.3 4.1v46.8l7.3.8v20.2h-42.4V104l7.3-.8V21l-7.3-.8V0h35v37.1c6.9-3.5 17-6.2 27.2-6.2 25.2 0 30.7 14.8 30.7 35.7v36.6l7.3.8v20.2h-35zm98.6-50.5c0-15.9-4.8-21.3-16.1-21.3-11.2 0-15.9 5.4-15.9 21.3v9.9c0 15.9 4.8 21.3 15.9 21.3 11.3 0 16.1-5.4 16.1-21.3zm-16.1 52.7c-27.6 0-43.5-12.7-43.5-42.9v-9.9c0-30.1 15.9-42.9 43.5-42.9 27.9 0 43.8 12.7 43.8 42.9v9.9c0 30.1-15.9 42.9-43.8 42.9m93.7 0c-27.9 0-40.6-14.5-40.6-42.9v-10c0-28.7 12.7-42.7 40.6-42.7 14.5 0 26.3 2.2 30.3 3.5v25.5h-17.2l-1.4-7c-2.2-.2-5.3-.3-7-.3-11.5 0-17.5 3.5-17.5 21v10c0 17.7 6.1 21.3 18 21.3 5.4 0 13.2-.5 25.2-1.3V123c-5.4 1.4-15.9 3.5-30.4 3.5m93.6-42.2h-9.2c-12.7 0-18.2 1.4-18.2 11.6v3.7c0 7 4.3 8.9 10.4 8.9 7.2 0 14.2-2.5 17-4.1zm1.4 40v-5.9c-6.1 4-16.6 8.1-28.7 8.1-17 0-26.6-8.6-26.6-26v-3.7c0-24.2 18.5-26.9 44.3-26.9h8.4V65c0-11-2.4-13.2-16.7-13.2-3.3 0-6.4.2-9.9.3l-1.6 7h-17.8V36.3c5.1-1.8 19.8-5.4 35-5.4 28.4 0 38.9 9.1 38.9 34.1v38.2l7.2.8v20.2H442zm75.8 2.2c-12.7 0-27.4-2.2-32.5-3.5V99.7h18.2l1.4 7.5c3.8.2 7.6.3 11.5.3 11 0 14-2.5 14-7.8 0-5.1-2.2-6.5-13.7-11.2l-6.7-2.7c-17-6.5-26.3-13.9-26.3-29 0-20.2 14.3-26 37.4-26 13.4 0 28 1.9 33.8 3.7v22h-18l-1.6-6.5c-3.7-.2-8.4-.3-11.3-.3-9.2 0-13.1 1.1-13.1 6.4 0 4.6 2.2 6.2 11.9 9.9l8 3c19.9 7.6 26.9 14.7 26.9 29.5.1 18.8-12.7 28-39.9 28" fill="#1a1a2e"/>
  <path d="M567.3 110.6c0-2 .4-3.9 1.1-5.7s1.8-3.4 3.1-4.7 2.9-2.4 4.7-3.1 3.7-1.1 5.7-1.1 3.9.4 5.7 1.1 3.4 1.8 4.7 3.1 2.4 2.9 3.1 4.7 1.1 3.7 1.1 5.7-.4 3.9-1.1 5.7-1.8 3.4-3.1 4.7-2.9 2.4-4.7 3.1-3.7 1.1-5.7 1.1-3.9-.4-5.7-1.1-3.4-1.8-4.7-3.1-2.4-2.9-3.1-4.7-1.1-3.7-1.1-5.7" fill="#4ec5e0"/>
</svg>
