<?xml version="1.0" encoding="UTF-8"?> <svg xmlns="http://www.w3.org/2000/svg" fill-rule="evenodd" stroke-linejoin="round" stroke-miterlimit="2" clip-rule="evenodd" viewBox="0 0 2275 668"><defs></defs><path fill="#ed1c24" fill-rule="nonzero" d="M334 0L0 334l334 333 333-333L334 0z"></path><path fill="#fff" fill-rule="nonzero" d="M568 306l-42-41-41 41h18v17h47v-17h18zM550 361v-17h-47v17h-18l41 42 42-42h-18z"></path><path fill="#fff" fill-rule="nonzero" d="M430 458h83L388 334l97-97h-83l-83 83h-42v138h70v-83l83 83z"></path><path fill="#fff" fill-rule="nonzero" d="M365 237H142l-55 55h94v166h69V292h60l55-55z"></path><path fill="#ed1c24" fill-rule="nonzero" d="M829 222v166h-53V222h-52v-47h157v47h-52zM991 229c-4-5-11-9-21-9-9 0-17 4-21 9-4 7-7 14-7 53s3 46 7 52c4 5 12 9 21 9 10 0 17-4 21-9 5-6 8-13 8-52s-3-46-8-53zm39 137a78 78 0 01-60 24c-26 0-44-8-59-24-23-22-22-52-22-84s-1-62 22-85c15-15 33-24 59-24s44 9 60 24c22 23 21 53 21 85s1 62-21 84zM1164 222v166h-53V222h-52v-47h157v47h-52zM1294 256l-20 57h37l-17-57zm41 132l-10-31h-65l-11 31h-55l78-213h40l78 213h-55zM1405 388V175h53v167h89v46h-142z"></path><path fill="#fff" fill-rule="nonzero" d="M1678 388l-49-87-18 21v66h-51V175h51v76l62-76h64l-73 86 75 127h-61zM1838 256l-19 57h37l-18-57zm42 132l-10-31h-65l-11 31h-55l78-213h40l78 213h-55zM2029 222h-29v43h29c15 0 23-10 23-21s-8-22-23-22zm26 166l-38-79h-17v79h-53V175h85c47 0 72 34 72 69 0 29-18 47-34 55l46 89h-61zM2127 388V175h144v47h-92v36h79v46h-79v38h92v46h-144zM837 459l-13 47h-10l-7-23-8 23h-9l-13-47h12l6 25 8-25h8l8 25 6-25h12zM883 482l-1-8-1-3-2-2h-5a5 5 0 00-3 3l-1 4a81 81 0 001 16l1 2 4 2 5-2 1-4 1-8zm12-1v3l-1 7-1 5-3 5-6 4-8 1h-5a17 17 0 01-8-5l-4-7-1-10v-3l1-10 4-8 6-4 7-1 8 1 6 4 3 5 1 6 1 7zM944 474l-1-3-1-1-3-1h-7v10h7l3-1a5 5 0 002-4zm14 32h-13l-9-18h-4v18h-11v-47h19c3 0 6 0 8 2 3 1 5 3 6 5l2 8c0 3-1 5-3 7-1 3-3 4-5 5l10 20zM1022 506h-13l-11-19-4 4v15h-12v-47h12v16l14-16h14l-16 19 16 28zM1077 491l-2 9-7 5-9 1-10-1-8-5 7-7 5 2 6 1c4 0 7-1 7-4l-1-3-3-1-6-1-10-4c-2-3-3-6-3-10l2-8 6-5 9-2 10 1 6 5-7 7-4-2-5-1-4 2-2 3 1 2 4 1 5 1c4 1 8 2 10 4l2 4 1 6zM1139 506h-12v-19h-12v19h-12v-47h12v18h12v-18h12v47zM1189 482v-8l-1-3-2-2h-6a5 5 0 00-3 3v4a81 81 0 000 16l1 2 5 2 5-2 1-4v-8zm12-1v10l-2 5c0 2-1 4-3 5l-6 4-7 1h-5a17 17 0 01-8-5c-2-2-4-4-4-7l-1-10v-3l1-10c0-3 2-5 4-8l6-4 7-1 7 1 6 4c2 2 3 3 3 5l2 6v7zM1251 474l-1-3-2-1-2-1h-7v10h7l2-1a5 5 0 003-4zm11 0c0 2 0 5-2 7-1 3-3 4-5 6l-9 2h-7v17h-12v-47h19c3 0 6 0 9 2l5 5c2 3 2 5 2 8zM1352 506h-32v-47h32v10h-20v8h17v10h-17v9h20v10zM1402 482l-1-8-1-3-2-2h-5a5 5 0 00-3 3l-1 4a81 81 0 001 16l1 2 4 2h1l-3-3 6-6 2 2 1-7zm12 20l-6 6-3-4c-3 2-6 2-10 2h-5a17 17 0 01-8-5l-4-7-1-10v-3l1-10 4-8 6-4 7-1 8 1 6 4 3 5 1 6v8a127 127 0 010 12l-2 4 3 4zM1475 489l-2 7-4 6-5 3a20 20 0 01-16-1 16 16 0 01-9-15v-30h11v30l2 5 5 2 3-1 2-2 1-4v-30h12v30zM1500 459h12v48h-12zM1564 474v-3l-2-1-3-1h-6v10h6l3-1a5 5 0 002-4zm12 0l-2 7c-1 3-3 4-5 6l-9 2h-7v17h-12v-47h19c3 0 6 0 9 2l5 5 2 8zM1645 506h-11v-23l-7 12h-8l-6-12v23h-12v-47h12l10 20 11-20h11v47zM1705 506h-32v-47h32v10h-20v8h17v10h-17v9h20v10zM1769 506h-10l-16-24v24h-11v-47h10l15 23v-23h12v47zM1829 469h-12v37h-12v-37h-11v-10h35v10zM1919 506h-32v-47h32v10h-21v8h18v10h-18v9h21v10zM1983 506h-14l-7-15-8 15h-14l15-24-14-23h14l7 13 7-13h13l-14 23 15 24zM2029 474l-1-3-1-1-3-1h-7v10h7l3-1a5 5 0 002-4zm12 0l-2 7-6 6-9 2h-7v17h-11v-47h18c4 0 7 0 9 2 3 1 4 3 6 5l2 8zM2098 506h-32v-47h32v10h-21v8h18v10h-18v9h21v10zM2148 474l-1-3-2-1-2-1h-7v10h7l2-1a5 5 0 003-4zm14 32h-14l-8-18h-4v18h-12v-47h19c3 0 6 0 9 2l5 5c2 3 2 5 2 8l-2 7-5 5 10 20zM2218 469h-12v37h-11v-37h-12v-10h35v10zM2275 491c0 4-1 6-3 9l-6 5-10 1-10-1-8-5 8-7 5 2 6 1c4 0 6-1 6-4l-1-3-3-1-5-1c-5-1-8-2-10-4-2-3-3-6-3-10 0-3 0-5 2-8 1-2 3-4 6-5l9-2 9 1 7 5-7 7-4-2-5-1-5 2-1 3 1 2 3 1 6 1c4 1 7 2 9 4l3 4 1 6z"></path></svg> 